<svg width="100" height="100" viewBox="0 0 100 100" fill="none" xmlns="http://www.w3.org/2000/svg">
<g clip-path="url(#clip0_16_67)">
<path d="M93.2203 0H6.77966C3.03536 0 0 2.57678 0 5.7554V94.2446C0 97.4232 3.03536 100 6.77966 100H93.2203C96.9646 100 100 97.4232 100 94.2446V5.7554C100 2.57678 96.9646 0 93.2203 0Z" fill="#4a00ff"/>
<path d="M16.9595 11.4793C16.9595 11.3717 29.7639 11.1565 44.0896 11.1565C41.1737 28.4837 38.2579 59.5867 52.0765 68.1966C53.8513 69.3804 56.6404 69.0575 58.0349 67.4432C59.3027 65.8289 58.9224 63.4612 57.1475 62.3849C46.2448 55.6047 49.6677 26.8694 52.5836 11.0488C67.7967 10.8336 82.1224 10.726 82.1224 10.8336C86.1792 13.9547 72.3606 85.6315 69.6983 87.7839C67.036 89.7211 31.0317 90.2592 29.3836 87.7839C26.848 83.8019 16.5792 11.587 16.9595 11.4793Z" fill="#ECFFFC"/>
</g>
<defs>
<clipPath id="clip0_16_67">
<rect width="100" height="100" fill="white"/>
</clipPath>
</defs>
</svg>
